<svg xmlns="http://www.w3.org/2000/svg" width="89.322" height="68.211" viewBox="0 0 89.322 68.211">
    <defs>
        <style>
            .cls-1,.cls-3{fill:#fff}.cls-1{font-size:50px;font-family:Moderat-Regular,Moderat}.cls-2{fill:#4472a3}
        </style>
    </defs>
    <g id="Group_11" data-name="Group 11" transform="translate(-349.96 -627.15)">
        <text id="d" class="cls-1" transform="translate(350.016 685.361)">
            <tspan x="0" y="0">d</tspan>
        </text>
        <path id="Path_21" d="M17.455 7.294c8.795 0 15.4-6.919 15.4-16.072S26.2-24.85 17.407-24.85C8.568-24.85 1.96-17.931 1.96-8.779S8.568 7.294 17.455 7.294zm0-4.018c-6.428 0-11.161-5.224-11.161-12.054s4.733-12.054 11.116-12.054 11.161 5.224 11.161 12.054S23.836 3.276 17.455 3.276z" class="cls-2" data-name="Path 21" transform="translate(348 652)"/>
        <path id="Path_5" d="M14.577-17.848a8.851 8.851 0 0 0-7.762 3.979h-.491l-.737-3.488H2.394L2.345 17.05h4.323l.049-13.431A8.207 8.207 0 0 0 14.43 7.7c6.435 0 11.4-5.109 11.4-12.772-.004-7.618-4.867-12.776-11.253-12.776zm-.59 21.615c-4.421 0-7.319-3.586-7.319-8.842 0-5.207 2.9-8.842 7.319-8.842 4.372 0 7.516 3.635 7.516 8.842s-3.095 8.842-7.516 8.842z" class="cls-3" data-name="Path 5" transform="translate(369.209 650.612)"/>
        <path id="Path_6" d="M13.162-17.85C6.425-17.85 1.47-12.594 1.47-5.218c0 7.8 4.618 12.913 12.085 12.913 4.962 0 9.432-2.554 10.709-7.614h-4.176a6.737 6.737 0 0 1-6.534 3.881c-5.06 0-7.565-3.34-7.86-8.105h18.619c.587-9.384-4.667-13.707-11.151-13.707zM5.842-7.485c.737-4.07 3.439-6.779 7.467-6.779a6.7 6.7 0 0 1 4.912 1.909 6.7 6.7 0 0 1 2.014 4.87z" class="cls-3" data-name="Path 6" transform="translate(393.46 650.614)"/>
        <path id="Path_7" d="M14.366-17.85c-4.47 0-6.484 2.063-7.516 3.586h-.393l-.681-3.095H2.38L2.589 7.2H6.9V-6.9c0-4.962 3-6.976 5.993-6.976 3.537 0 6.042 2.358 6.042 7.221V7.2h4.526V-7.485c0-6.828-3.986-10.365-9.095-10.365z" class="cls-3" data-name="Path 7" transform="translate(415.54 652.018)"/>
        <path id="Path_9" d="M13.162-17.85C6.425-17.85 1.47-12.594 1.47-5.218c0 7.8 4.618 12.913 12.085 12.913 4.962 0 11.212-3.3 12.489-8.351h-4.18c-1.123 2.648-5.509 4.618-8.309 4.618-5.06 0-7.565-3.34-7.86-8.105h18.618c.587-9.384-4.667-13.707-11.151-13.707zM5.842-7.485c.737-4.07 3.439-6.779 7.467-6.779a6.7 6.7 0 0 1 4.912 1.909 6.7 6.7 0 0 1 2.014 4.87z" class="cls-3" data-name="Path 9" transform="translate(377.277 677.282)"/>
        <path id="Path_10" d="M20.088.866c0-4.569-3.684-6.386-8.2-7.811-3.197-1.031-5.26-2.063-5.26-4.273 0-2.014 1.867-3.193 3.979-3.193 2.7 0 4.667 1.621 4.772 3.881h4.07c-.1-3.832-3.193-7.319-8.6-7.319-4.912 0-8.548 2.7-8.548 6.926 0 4.323 4.176 6.091 7.719 7.172 3.144.933 5.748 2.063 5.748 4.569 0 2.26-2.063 3.439-4.519 3.439-2.505 0-5.5-1.375-5.551-4.962H1.47c.042 4.912 3.783 8.4 9.677 8.4 5.011 0 8.941-2.408 8.941-6.829z" class="cls-3" data-name="Path 10" transform="translate(397.67 677.282)"/>
        <path id="Path_11" d="M23.442-14.949h-4.561L7.349-3.783h-.455V-25.56H2.448v35.875h4.446V2.432l3.587-3.689 8.135 11.571h5.1L13.469-4.338z" class="cls-3" data-name="Path 11" transform="translate(415.567 674.17)"/>
    </g>
</svg>
